# xmcd
#
# Track frame offsets: 
#        150
#        13704
#        31436
#        44709
#        58388
#        77685
#        93255
#        107336
#        119615
#        136444
#        153932
#        175278
#        194187
#        212107
#
# Disc length: 3004 seconds
#
# Revision: 0
# Processed by: cddbd v1.5.1PL0 Copyright (c) Steve Scherf et al.
# Submitted via: ExactAudioCopy v0.95a5
#
DISCID=cb0bba0e
DTITLE=Various Artist - HASTA SIEMPRE 2
DYEAR=1900
DGENRE=MusicaTradicionalCubana
TTITLE0=Candelina Ale - Grupo Tradison
TTITLE1=Pare Cochero - Grupo Arimao
TTITLE2=Piel Canela - Cuarteto Acana
TTITLE3=Cosas del Company Anton - Guaracheros de Oriente
TTITLE4=Camaroncitos Secos - Sexteto Sugerencia
TTITLE5=La Gota Fria - Grupo Arimao
TTITLE6=Contigo en la Distancia - Trio Raices
TTITLE7=Estoy Hecho Tierra - Guaracheros de Oriente
TTITLE8=Yo Si Coo Candela - Sexteto Acuarela
TTITLE9=La Caminadora - Sexteto Comtemporaneo
TTITLE10=Nosotros - Grupo Arimao
TTITLE11=El Panquelero - Quinteto Son de la Loma
TTITLE12=Guajira del Caney - Sexteto Comtemporaneo
TTITLE13=Que Quieren De Mi Las Mujeres
EXTD=
EXTT0=
EXTT1=
EXTT2=
EXTT3=
EXTT4=
EXTT5=
EXTT6=
EXTT7=
EXTT8=
EXTT9=
EXTT10=
EXTT11=
EXTT12=
EXTT13=
PLAYORDER=
